
<svg width="21px" height="21px" viewBox="-1 3 21 21" version="1.1" xmlns="http://www.w3.org/2000/svg" xmlns:xlink="http://www.w3.org/1999/xlink">
    <!-- Generator: Sketch 40.2 (33826) - http://www.bohemiancoding.com/sketch -->
    <desc>Created with Sketch.</desc>
    <defs></defs>
    <path d="M10,13.999977 C7.78349649,13.999977 5.98095464,12.205977 5.98095464,9.99997695 C5.98095464,7.79397695 7.78349649,5.99997695 10,5.99997695 C12.2165035,5.99997695 14.0190454,7.79397695 14.0190454,9.99997695 C14.0190454,12.205977 12.2165035,13.999977 10,13.999977 M13.7758931,14.672977 C15.3704494,13.395977 16.2998536,11.330977 15.9582347,9.06997695 C15.561354,6.44697695 13.3689648,4.34797695 10.7224234,4.04197695 C7.07011594,3.61897695 3.97143197,6.44897695 3.97143197,9.99997695 C3.97143197,11.889977 4.8516029,13.573977 6.22410689,14.672977 C2.85212784,15.933977 0.390462556,18.894977 0.00463420206,22.890977 C-0.0516324329,23.481977 0.411562544,23.999977 1.00839078,23.999977 C1.5198143,23.999977 1.95588072,23.615977 2.00109498,23.108977 C2.40400428,18.645977 5.83727377,15.999977 10,15.999977 C14.1627262,15.999977 17.5959957,18.645977 17.998905,23.108977 C18.0441193,23.615977 18.4801857,23.999977 18.9916092,23.999977 C19.5884375,23.999977 20.0516324,23.481977 19.9953658,22.890977 C19.6095374,18.894977 17.1478722,15.933977 13.7758931,14.672977" id="profile-[#1341]" stroke="none" fill="#fff" fill-rule="evenodd"></path>
</svg>